Coordinates
version=1
nRows=25
nColumns=28
inDegrees=yes

Units are S.I. units (second, meters, Newtons, ...)
Angles are in degrees.

endheader
time	pelvis_tilt	pelvis_list	pelvis_rotation	pelvis_tx	pelvis_ty	pelvis_tz	hip_flexion_r	hip_adduction_r	hip_rotation_r	knee_angle_r	ankle_angle_r	subtalar_angle_r	mtp_angle_r	hip_flexion_l	hip_adduction_l	hip_rotation_l	knee_angle_l	socket_flexion	socket_adduction	socket_rotation	socket_tx	socket_ty	socket_tz	foot_flex	lumbar_extension	lumbar_bending	lumbar_rotation
      0.93750000	      3.18629161	     -5.58129917	     -1.83324482	      0.41898677	      1.03381805	      0.30612769	      0.23513778	     10.55533533	     -0.86781451	    -14.14261126	      9.87518116	    -11.17712388	      3.01859118	     12.76276077	    -11.83142671	     -0.39811763	    -47.04194410	     10.37688394	      7.19512313	     15.07696173	      0.07919438	      0.03701701	     -0.03447207	     -0.27581280	    -10.60815288	      5.43750219	      4.42077077
      0.94166667	      3.13130688	     -5.43249702	     -2.05225849	      0.42358259	      1.03455327	      0.30661917	     -0.18091718	     10.38592816	     -0.75918846	    -13.80459365	      9.81597475	    -10.95934372	      3.05188667	     13.33557467	    -11.65098165	     -0.24755955	    -46.83422705	     10.14501525	      7.26618122	     15.00182686	      0.07831698	      0.03670677	     -0.03473945	     -0.27042255	    -10.59993206	      5.24399675	      4.66849686
      0.94583333	      3.08356052	     -5.29789463	     -2.27513050	      0.42818806	      1.03524776	      0.30707538	     -0.59670769	     10.22057301	     -0.65369043	    -13.48458303	      9.76243861	    -10.75054122	      3.08946438	     13.88972500	    -11.49323884	     -0.09622450	    -46.61114591	      9.89504467	      7.34429358	     14.91893779	      0.07739599	      0.03637308	     -0.03506931	     -0.26657373	    -10.59057830	      5.04044281	      4.90175770
      0.95000000	      3.04661378	     -5.16721626	     -2.50708833	      0.43277643	      1.03589940	      0.30756088	     -1.01730184	     10.06169904	     -0.56724618	    -13.17326296	      9.72017979	    -10.55844435	      3.12636439	     14.42972645	    -11.36871272	      0.03548935	    -46.37792720	      9.63223360	      7.42703873	     14.82663221	      0.07642323	      0.03610790	     -0.03559126	     -0.26488696	    -10.58499370	      4.84674032	      5.10574992
      0.95416667	      3.00600906	     -5.04934967	     -2.73954450	      0.43735280	      1.03652032	      0.30799472	     -1.42977615	      9.90528778	     -0.47434836	    -12.86444421	      9.67948017	    -10.36895489	      3.16234531	     14.95382586	    -11.24781036	      0.17832687	    -46.12253972	      9.35557892	      7.48975704	     14.75052528	      0.07535143	      0.03580229	     -0.03607080	     -0.26214521	    -10.58532014	      4.68386813	      5.30066401
      0.95833333	      2.94625848	     -4.93328724	     -2.93687188	      0.44195153	      1.03704499	      0.30838538	     -1.83969085	      9.75798142	     -0.34562156	    -12.52008782	      9.61967741	    -10.14857500	      3.20631768	     15.46841550	    -11.09493877	      0.34273024	    -45.83322819	      9.04866106	      7.53851715	     14.65628901	      0.07418215	      0.03517343	     -0.03616872	     -0.25609911	    -10.55977109	      4.49683558	      5.53447349
      0.96250000	      2.94548343	     -4.91527475	     -3.20804050	      0.44626307	      1.03759933	      0.30881944	     -2.13694953	      9.67648415	     -0.39768037	    -12.49419731	      9.62111254	    -10.12925880	      3.21243765	     15.90905469	    -11.06365106	      0.39106117	    -45.52949605	      8.75740608	      7.50383424	     14.63245887	      0.07311108	      0.03461902	     -0.03601854	     -0.21950440	    -10.66758434	      4.50047499	      5.56827813
      0.96666667	      2.87338506	     -4.74413151	     -3.35632908	      0.45099319	      1.03806017	      0.30924228	     -2.63962331	      9.50247969	     -0.16840865	    -11.94333734	      9.56303817	     -9.81049043	      3.26283521	     16.47470548	    -10.92454423	      0.58273377	    -45.23625482	      8.43555668	      7.58813803	     14.54197839	      0.07182839	      0.03446307	     -0.03694414	     -0.24968812	    -10.57749927	      4.21131866	      5.83614286
      0.97083333	      2.78462824	     -4.64770988	     -3.54924412	      0.45569201	      1.03843309	      0.30953666	     -3.04233874	      9.36255443	     -0.03631326	    -11.55613901	      9.46747341	     -9.57314902	      3.31728317	     16.91024157	    -10.75487005	      0.75664136	    -44.86676458	      8.06082737	      7.58017134	     14.38592857	      0.07021152	      0.03337972	     -0.03661518	     -0.23294532	    -10.51010825	      4.07440933	      6.13549881
      0.97500000	      2.78619728	     -4.63872569	     -3.79296839	      0.45995051	      1.03878611	      0.30987217	     -3.32649352	      9.29737802	     -0.08317450	    -11.56026152	      9.46726412	     -9.56045278	      3.32390766	     17.34524926	    -10.73708030	      0.80379230	    -44.53246467	      7.74664261	      7.51353623	     14.35699683	      0.06905622	      0.03276207	     -0.03658003	     -0.19202119	    -10.62650911	      4.06840843	      6.16267061
      0.97916667	      2.68637220	     -4.50419188	     -3.93611930	      0.46473968	      1.03911580	      0.31030379	     -3.80317567	      9.14565057	      0.14731568	    -10.99546116	      9.40358595	     -9.24587750	      3.39547617	     17.80560109	    -10.59373706	      1.00687681	    -44.14030505	      7.34302802	      7.55173845	     14.24862882	      0.06726756	      0.03203826	     -0.03675344	     -0.21664477	    -10.51043034	      3.82447906	      6.46199479
      0.98333333	      2.68342206	     -4.49562367	     -4.16746548	      0.46898629	      1.03936770	      0.31057468	     -4.08540054	      9.07315156	      0.10382794	    -10.99032335	      9.40168082	     -9.23064968	      3.40318448	     18.23510741	    -10.58047313	      1.05113300	    -43.78854988	      7.01447955	      7.46877668	     14.20968031	      0.06603518	      0.03148905	     -0.03671825	     -0.17269699	    -10.62440583	      3.83354738	      6.49499039
      0.98750000	      2.57044809	     -4.39186806	     -4.30440971	      0.47391362	      1.03959199	      0.31094380	     -4.57582792	      8.94480314	      0.32457375	    -10.38066916	      9.34211740	     -8.91585852	      3.47923663	     18.63329467	    -10.45538609	      1.23764855	    -43.34048725	      6.57053419	      7.45204988	     14.08783491	      0.06398768	      0.03046601	     -0.03664479	     -0.19685939	    -10.45712060	      3.64837260	      6.79694708
      0.99166667	      2.56415034	     -4.39456815	     -4.51960728	      0.47809052	      1.03976184	      0.31120008	     -4.84440961	      8.88345492	      0.28700963	    -10.38645616	      9.33734547	     -8.90218744	      3.48672297	     19.05718760	    -10.45159333	      1.28687849	    -42.96725291	      6.22740987	      7.34388572	     14.05212839	      0.06270371	      0.02996824	     -0.03650549	     -0.14886418	    -10.58506024	      3.64516104	      6.82539994
      0.99583333	      2.44402761	     -4.31444965	     -4.64677725	      0.48309278	      1.03986566	      0.31148433	     -5.33290300	      8.77082011	      0.50129185	     -9.77900105	      9.28045671	     -8.60591610	      3.56599601	     19.38352894	    -10.33600796	      1.46080392	    -42.46158938	      5.74281803	      7.28383873	     13.94500654	      0.06031699	      0.02858531	     -0.03621504	     -0.17007919	    -10.40142684	      3.50989204	      7.11385666
      1.00000000	      2.43677719	     -4.32082421	     -4.84699917	      0.48722000	      1.03994015	      0.31176017	     -5.59639520	      8.72112245	      0.46617005	     -9.78720380	      9.27504132	     -8.59303635	      3.57417539	     19.80438178	    -10.34151357	      1.50646671	    -42.07251228	      5.38611274	      7.16365389	     13.90499557	      0.05900087	      0.02816957	     -0.03603154	     -0.12055324	    -10.53860336	      3.49749751	      7.13952633
      1.00416667	      2.31780992	     -4.28030878	     -4.96505005	      0.49227134	      1.03994036	      0.31195904	     -6.08490904	      8.63831807	      0.66235234	     -9.19843908	      9.23212818	     -8.32752164	      3.65554263	     20.06308519	    -10.25023807	      1.66921736	    -41.51734861	      4.86975500	      7.05411081	     13.81809760	      0.05637066	      0.02652496	     -0.03548556	     -0.14124234	    -10.34933080	      3.41548773	      7.39846641
      1.00833333	      2.30665064	     -4.28423646	     -5.14873461	      0.49633830	      1.03993033	      0.31228221	     -6.34097691	      8.59351572	      0.63149147	     -9.19894271	      9.22669722	     -8.31426743	      3.66434199	     20.47976348	    -10.26508689	      1.71070416	    -41.11449387	      4.50208704	      6.92395936	     13.77473892	      0.05494596	      0.02618747	     -0.03525924	     -0.09123287	    -10.49667021	      3.39684844	      7.42213942
      1.01250000	      2.18551399	     -4.26470493	     -5.24039647	      0.50135380	      1.03982665	      0.31239970	     -6.80668186	      8.53235324	      0.79885877	     -8.64800394	      9.21616026	     -8.09227057	      3.73860785	     20.70382001	    -10.19341993	      1.84885305	    -40.52393532	      3.97173873	      6.75681715	     13.72838130	      0.05205101	      0.02446138	     -0.03460421	     -0.11283489	    -10.32186571	      3.39167714	      7.63063892
      1.01666667	      2.17962977	     -4.28729426	     -5.41788835	      0.50541907	      1.03971848	      0.31273415	     -7.06994181	      8.50156538	      0.76802162	     -8.65558230	      9.21110291	     -8.07959423	      3.74612697	     21.11851236	    -10.22340697	      1.89132662	    -40.11910667	      3.60403302	      6.60985749	     13.68077659	      0.05076707	      0.02423755	     -0.03426692	     -0.06344024	    -10.45825345	      3.34481901	      7.64501660
      1.02083333	      2.09133993	     -4.23139465	     -5.55648158	      0.51060627	      1.03959913	      0.31313799	     -7.66909137	      8.40786405	      1.04541817	     -7.91353255	      9.03594167	     -7.79862528	      3.85928400	     21.13367974	    -10.21668061	      2.05194466	    -39.44989528	      2.96136519	      6.56127107	     13.49700429	      0.04671052	      0.02210192	     -0.03424340	     -0.07245266	    -10.30448179	      3.21422221	      7.92917710
      1.02500000	      2.06422599	     -4.29453954	     -5.67510671	      0.51502409	      1.03941127	      0.31318048	     -8.01002458	      8.41718976	      1.08937088	     -7.77920901	      9.06576438	     -7.78578376	      3.91642930	     21.34732558	    -10.16027688	      2.16627871	    -38.89663341	      2.48590690	      6.30814445	     13.47383411	      0.04442346	      0.02078391	     -0.03283966	     -0.06493378	    -10.33592443	      3.29977189	      8.02086154
      1.02916667	      1.99240918	     -4.31553226	     -5.77084619	      0.51974729	      1.03915182	      0.31334879	     -8.43507654	      8.39519148	      1.16104515	     -7.39093081	      9.09274737	     -7.70108789	      3.98382853	     21.55777189	    -10.16566574	      2.24259582	    -38.32796032	      1.97902038	      6.11592082	     13.40846687	      0.04164041	      0.01953036	     -0.03218529	     -0.06988845	    -10.29930706	      3.30429460	      8.11582423
      1.03333333	      1.96453095	     -4.34845261	     -5.91593252	      0.52377635	      1.03888560	      0.31366066	     -8.68452109	      8.37412741	      1.13658240	     -7.37667536	      9.09581842	     -7.69084163	      3.99375268	     21.95498897	    -10.20230322	      2.28445359	    -37.89221537	      1.59172702	      5.93383909	     13.36960365	      0.04014336	      0.01941081	     -0.03158305	     -0.02233797	    -10.45488296	      3.26472435	      8.12425062
      1.03750000	      1.85026984	     -4.41198528	     -5.93650887	      0.52879014	      1.03842853	      0.31355942	     -9.14291316	      8.40710593	      1.24259221	     -6.88586970	      9.14232720	     -7.55847690	      4.05718573	     22.08694370	    -10.15263364	      2.36042947	    -37.23335719	      1.03772034	      5.61539958	     13.37213588	      0.03687796	      0.01746129	     -0.03009035	     -0.05150818	    -10.26715047	      3.38731134	      8.21968461
